<?xml version="1.0" standalone="no"?>
<!DOCTYPE svg PUBLIC "-//W3C//DTD SVG 20010904//EN"
 "http://www.w3.org/TR/2001/REC-SVG-20010904/DTD/svg10.dtd">
<svg version="1.0" xmlns="http://www.w3.org/2000/svg"
 width="512.000000pt" height="512.000000pt" viewBox="0 0 512.000000 512.000000"
 preserveAspectRatio="xMidYMid meet">

<g transform="translate(0.000000,512.000000) scale(0.100000,-0.100000)"
fill="#000000" stroke="none">
<path d="M2020 4851 c-49 -16 -87 -40 -119 -76 -17 -20 -31 -39 -31 -44 0 -5
-18 -11 -41 -15 -87 -14 -174 -84 -199 -161 -46 -139 61 -292 211 -303 l59 -4
57 -82 c31 -44 64 -90 73 -101 16 -19 16 -25 1 -102 -14 -73 -19 -83 -37 -83
-12 0 -65 -9 -118 -20 l-97 -20 -52 39 c-228 167 -531 306 -730 333 l-82 11
-45 56 c-25 30 -59 73 -77 96 l-32 41 14 48 c19 62 19 90 -1 155 -20 69 -90
141 -159 164 -130 45 -268 0 -334 -110 -16 -27 -35 -45 -51 -49 -147 -33 -230
-126 -230 -259 0 -148 112 -257 268 -261 l72 -2 75 -93 c46 -58 73 -100 69
-109 -29 -78 -38 -156 -38 -335 0 -246 32 -433 122 -712 l29 -89 -19 -54 c-10
-30 -28 -104 -40 -165 -30 -146 -32 -415 -4 -545 57 -266 160 -471 338 -672
l60 -68 -196 0 -196 0 0 -128 c0 -143 15 -220 57 -292 48 -81 111 -138 201
-183 l85 -42 331 -8 c182 -4 1056 -6 1941 -5 l1610 3 55 22 c125 51 224 151
271 271 19 47 23 83 27 205 l4 147 -130 0 -130 0 30 70 c43 105 58 199 58 380
0 276 -30 479 -106 710 -204 623 -708 1129 -1354 1358 -77 27 -93 38 -170 112
-297 288 -652 490 -861 490 l-57 0 -50 67 c-48 65 -49 67 -36 99 19 44 18 126
-2 172 -19 47 -68 98 -118 124 -43 22 -136 32 -176 19z m133 -182 c29 -35 22
-76 -19 -113 -25 -23 -34 -38 -28 -47 4 -8 35 -52 69 -99 l61 -85 -58 -55 -58
-56 -77 111 c-41 60 -77 111 -78 113 -1 1 -18 -5 -38 -13 -20 -8 -50 -15 -67
-15 -38 0 -80 39 -80 75 0 35 42 75 78 75 16 0 49 -7 72 -15 67 -24 70 -22 70
43 0 59 10 81 45 101 28 16 87 5 108 -20z m-1583 -44 c63 -32 69 -104 14 -165
l-36 -40 84 -102 c46 -57 88 -108 92 -115 4 -8 -7 -19 -32 -32 -21 -10 -57
-38 -80 -60 -23 -23 -44 -41 -46 -41 -3 0 -159 197 -177 223 -4 5 -25 -1 -47
-12 -23 -12 -55 -21 -72 -21 -96 0 -148 100 -87 167 34 38 77 46 145 28 33 -8
63 -15 66 -15 3 0 6 29 6 64 0 50 5 69 21 90 37 47 96 59 149 31z m2038 -453
c105 -39 237 -115 362 -208 118 -87 128 -99 74 -90 -22 4 -225 10 -453 13
l-413 5 6 36 c20 126 75 223 146 260 62 32 162 26 278 -16z m-1481 -150 c129
-44 292 -128 436 -225 168 -113 251 -181 390 -317 190 -185 263 -299 301 -473
9 -39 41 -67 77 -67 78 0 97 44 69 154 -43 171 -137 313 -332 507 l-118 117
43 6 c86 13 777 18 911 7 519 -46 984 -265 1342 -632 378 -389 557 -867 541
-1441 -5 -191 -17 -244 -80 -349 l-32 -54 -197 -3 -197 -2 30 64 c27 58 98
341 99 393 0 32 -84 48 -247 48 l-132 0 -11 45 c-13 52 -137 371 -149 383 -13
13 -152 -49 -236 -104 -238 -155 -377 -414 -378 -706 l-1 -113 -1035 0 -1036
0 -80 68 c-316 270 -474 672 -425 1082 15 119 17 122 47 70 64 -109 177 -231
276 -299 73 -49 201 -107 297 -132 167 -44 463 -23 567 41 39 24 52 70 28 106
-29 45 -52 48 -150 19 -228 -66 -452 -32 -650 100 -135 90 -216 195 -302 395
-153 355 -228 804 -177 1071 25 133 91 230 179 264 67 25 220 15 332 -23z
m2717 -2202 c43 -132 45 -122 -31 -166 -123 -71 -231 -199 -288 -341 -23 -56
-25 -58 -57 -54 -18 1 -36 8 -40 15 -13 20 -8 199 8 266 36 157 154 325 288
412 l60 38 18 -47 c10 -27 29 -82 42 -123z m365 -302 c-21 -93 -40 -141 -82
-210 l-29 -48 -214 0 -215 0 32 60 c85 160 278 278 460 279 l66 1 -18 -82z
m-226 -425 l977 -6 0 -32 c0 -102 -81 -221 -182 -266 l-53 -23 -1875 2 c-1570
3 -1883 5 -1925 17 -66 19 -136 66 -170 115 -29 42 -55 123 -55 172 l0 28
1153 0 c635 0 1593 -3 2130 -7z"/>
</g>
</svg>
