<?xml version="1.0" standalone="no"?>
<!DOCTYPE svg PUBLIC "-//W3C//DTD SVG 20010904//EN"
 "http://www.w3.org/TR/2001/REC-SVG-20010904/DTD/svg10.dtd">
<svg version="1.0" xmlns="http://www.w3.org/2000/svg"
 width="480.000000pt" height="32.000000pt" viewBox="0 0 480.000000 32.000000"
 preserveAspectRatio="xMidYMid meet">

<g transform="translate(0.000000,32.000000) scale(0.100000,-0.100000)"
fill="#000000" stroke="none">
<path d="M2363 237 c-4 -6 0 -8 10 -4 11 4 17 1 17 -9 0 -12 -7 -14 -32 -9
-18 4 -35 7 -38 7 -30 1 -47 -8 -84 -42 -47 -43 -56 -46 -86 -28 -16 10 -24
10 -40 0 -11 -6 -51 -12 -90 -12 -58 0 -71 3 -80 19 -14 28 -12 44 5 37 8 -3
15 -1 15 4 0 13 -27 13 -34 1 -3 -5 -23 -7 -44 -4 -38 5 -112 -22 -127 -47 -3
-5 -22 -10 -41 -10 -21 0 -33 4 -29 10 12 19 -27 24 -41 6 -11 -16 -23 -17
-96 -11 -46 3 -108 6 -138 6 -853 -7 -1350 -14 -1350 -19 0 -4 87 -6 192 -4
106 2 407 -2 668 -9 261 -6 493 -10 515 -9 22 1 83 3 137 4 53 0 94 4 91 9 -2
4 6 7 19 7 19 0 20 -2 8 -11 -11 -8 -9 -9 10 -3 54 17 393 3 415 -17 15 -15
41 -10 68 11 14 11 40 20 61 20 32 0 35 -2 27 -22 -4 -12 -14 -24 -21 -26 -7
-3 -10 0 -6 7 4 6 2 11 -4 11 -27 0 0 -25 35 -32 41 -9 74 9 61 31 -9 14 -36
14 -36 0 0 -5 4 -8 9 -4 5 3 12 1 15 -4 9 -13 -9 -22 -28 -15 -22 8 -20 31 3
44 28 14 61 13 61 -3 0 -8 9 -22 21 -33 20 -18 21 -18 48 15 23 28 32 33 55
27 31 -8 45 -34 25 -47 -17 -11 -32 -7 -27 6 2 6 8 9 13 7 6 -2 4 2 -2 9 -10
10 -16 10 -25 1 -9 -9 -9 -15 3 -27 12 -12 24 -14 54 -7 35 7 62 32 35 32 -6
0 -8 -5 -5 -10 3 -5 -1 -10 -9 -10 -9 0 -16 4 -16 9 0 5 -3 16 -6 25 -9 24 61
21 93 -4 28 -21 53 -26 68 -11 21 20 362 34 415 17 19 -6 21 -5 10 3 -12 9
-11 11 8 11 13 0 20 -4 17 -10 -3 -5 -2 -10 4 -10 5 0 12 3 14 8 3 4 45 3 94
-1 120 -10 98 -10 633 3 261 6 562 10 668 8 105 -2 192 0 192 4 0 5 -497 12
-1350 19 -30 0 -93 -3 -139 -6 -71 -6 -85 -5 -93 9 -11 20 -37 21 -44 1 -9
-23 -50 -18 -96 12 -29 20 -55 28 -90 29 -27 1 -52 5 -55 8 -10 10 -33 7 -33
-4 0 -5 7 -7 15 -4 17 7 19 -9 5 -37 -9 -16 -22 -19 -88 -19 -48 0 -83 5 -90
12 -10 10 -17 10 -32 0 -31 -19 -49 -14 -78 19 -35 42 -77 59 -116 48 -41 -12
-46 -11 -46 6 0 9 6 12 18 8 10 -4 14 -2 9 3 -12 13 -66 14 -74 1z m-3 -42 c6
-8 10 -22 8 -32 -4 -21 -39 -24 -46 -4 -3 10 0 12 12 8 9 -4 16 -2 16 3 0 19
-32 10 -37 -10 -4 -16 -14 -20 -51 -20 l-46 0 34 35 c37 38 87 48 110 20z
m190 -20 l34 -35 -46 0 c-37 0 -47 4 -51 20 -5 20 -37 29 -37 10 0 -5 3 -9 8
-7 4 1 8 -2 10 -8 1 -5 -6 -10 -15 -10 -22 0 -29 31 -13 50 23 28 73 18 110
-20z m-132 -5 c-1 -22 -6 -30 -20 -30 -13 0 -18 7 -18 30 0 23 5 30 19 30 15
0 19 -7 19 -30z m-522 -5 c-1 -24 -3 -25 -71 -25 -65 0 -68 1 -48 15 31 22 64
34 94 34 23 1 27 -3 25 -24z m1117 -4 l32 -21 -70 0 c-68 0 -70 1 -72 26 -1
25 1 26 38 21 22 -3 54 -14 72 -26z m-1082 -7 c12 -14 11 -16 -5 -13 -11 2
-21 10 -24 17 -5 17 13 15 29 -4z m963 1 c-4 -8 -13 -15 -21 -15 -13 0 -13 3
-3 15 7 8 16 15 21 15 5 0 6 -7 3 -15z m-1224 -5 c0 -5 -4 -10 -10 -10 -5 0
-10 5 -10 10 0 6 5 10 10 10 6 0 10 -4 10 -10z m1480 0 c0 -5 -4 -10 -10 -10
-5 0 -10 5 -10 10 0 6 5 10 10 10 6 0 10 -4 10 -10z m-1072 -27 c-10 -2 -26
-2 -35 0 -10 3 -2 5 17 5 19 0 27 -2 18 -5z m88 -8 c-22 -17 -46 -20 -46 -6 0
8 21 16 55 19 6 1 1 -5 -9 -13z m264 7 c0 -5 -7 -17 -15 -28 -15 -19 -15 -19
-30 0 -22 29 -19 36 15 36 17 0 30 -4 30 -8z m249 -8 c2 -2 2 -7 -2 -10 -9 -9
-57 5 -57 16 0 9 47 4 59 -6z m79 9 c-10 -2 -26 -2 -35 0 -10 3 -2 5 17 5 19
0 27 -2 18 -5z"/>
</g>
</svg>
