<?xml version="1.0" standalone="no"?>
<!DOCTYPE svg PUBLIC "-//W3C//DTD SVG 20010904//EN"
 "http://www.w3.org/TR/2001/REC-SVG-20010904/DTD/svg10.dtd">
<svg version="1.0" xmlns="http://www.w3.org/2000/svg"
 width="512.000000pt" height="512.000000pt" viewBox="0 0 512.000000 512.000000"
 preserveAspectRatio="xMidYMid meet">

<g transform="translate(0.000000,512.000000) scale(0.100000,-0.100000)"
fill="#000000" stroke="none">
<path d="M802 4994 c-69 -35 -67 -24 -63 -563 1 -266 5 -495 6 -510 2 -14 4
-204 5 -421 0 -217 5 -624 10 -905 5 -280 14 -919 20 -1420 9 -801 13 -915 27
-955 38 -103 63 -114 267 -106 89 3 244 8 346 11 377 11 518 15 625 20 61 3
313 12 560 20 715 23 837 39 1169 146 65 21 116 48 211 115 226 158 370 414
389 690 16 227 17 306 7 550 -12 264 -20 541 -20 659 0 33 -14 391 -31 795
-17 404 -35 967 -39 1250 -8 554 -10 573 -61 600 -17 9 -290 13 -1079 15 -581
2 -1108 6 -1171 9 -63 3 -347 8 -630 11 -469 5 -518 4 -548 -11z m2223 -260
l1010 -6 2 -32 c1 -17 4 -215 7 -441 3 -225 12 -590 21 -810 8 -220 24 -631
35 -914 26 -659 36 -1156 24 -1163 -5 -3 -52 6 -104 20 -83 22 -116 25 -270
26 -201 1 -237 -8 -260 -64 -12 -29 -11 -42 5 -99 53 -192 56 -209 56 -304 1
-219 -101 -388 -270 -451 -159 -59 -313 -75 -826 -86 -236 -5 -650 -17 -919
-25 -268 -9 -490 -14 -492 -12 -2 2 -8 386 -14 853 -6 467 -17 1232 -25 1699
-8 468 -17 1021 -20 1230 -3 209 -8 429 -11 489 l-5 109 523 -7 c288 -3 977
-9 1533 -12z m893 -3575 c79 -12 222 -57 222 -69 0 -37 -28 -128 -60 -195 -63
-131 -149 -219 -298 -306 -61 -36 -96 -43 -73 -15 19 23 63 150 77 224 17 90
17 191 0 295 -7 42 -11 79 -8 81 4 5 37 1 140 -15z"/>
<path d="M2160 3990 c-623 -6 -657 -7 -694 -25 -58 -29 -77 -61 -80 -133 -3
-67 14 -105 56 -128 34 -19 2039 -7 2085 12 92 37 100 213 11 261 -38 21 -209
22 -1378 13z"/>
<path d="M1485 3275 c-138 -49 -118 -269 27 -290 24 -3 484 -5 1023 -3 915 3
982 4 1012 21 43 23 67 70 67 132 0 62 -24 109 -67 132 -30 17 -97 18 -1027
20 -840 2 -1001 0 -1035 -12z"/>
<path d="M1526 2649 c-38 -30 -56 -71 -56 -126 0 -57 33 -114 77 -132 21 -8
281 -11 1014 -9 l986 3 31 34 c58 64 49 183 -18 231 -27 19 -48 20 -1018 20
-987 0 -990 0 -1016 -21z"/>
<path d="M1564 1998 c-57 -15 -94 -72 -94 -145 0 -58 26 -105 72 -130 31 -17
88 -18 1005 -18 966 0 972 0 999 21 51 37 68 70 68 127 0 59 -21 106 -58 131
-23 15 -112 16 -996 19 -534 1 -982 -1 -996 -5z"/>
</g>
</svg>
