<?xml version="1.0" standalone="no"?>
<!DOCTYPE svg PUBLIC "-//W3C//DTD SVG 20010904//EN"
 "http://www.w3.org/TR/2001/REC-SVG-20010904/DTD/svg10.dtd">
<svg version="1.0" xmlns="http://www.w3.org/2000/svg"
 width="319.000000pt" height="404.000000pt" viewBox="0 0 319.000000 404.000000"
 preserveAspectRatio="xMidYMid meet">

<g transform="translate(0.000000,404.000000) scale(0.100000,-0.100000)"
fill="#000000" stroke="none">
<path d="M1438 4029 c-140 -15 -398 -86 -398 -111 0 -5 -4 -6 -10 -3 -5 3 -10
1 -10 -5 0 -6 -4 -8 -10 -5 -5 3 -10 1 -10 -5 0 -6 -4 -9 -9 -5 -5 3 -16 -1
-24 -9 -8 -8 -17 -12 -21 -9 -3 4 -6 1 -6 -6 0 -7 -5 -9 -10 -6 -6 3 -13 -1
-16 -9 -3 -9 -10 -13 -15 -10 -5 3 -9 0 -9 -5 0 -6 -4 -10 -9 -9 -5 2 -17 -6
-26 -17 -9 -11 -14 -13 -10 -5 4 8 -6 2 -20 -15 -15 -16 -24 -23 -20 -15 3 8
-8 -1 -26 -20 -17 -19 -28 -28 -24 -20 11 22 -79 -66 -128 -125 -23 -27 -35
-45 -27 -40 8 5 -2 -8 -23 -29 -21 -21 -36 -40 -34 -43 3 -2 -3 -13 -14 -24
-11 -11 -17 -24 -14 -29 4 -6 2 -10 -2 -10 -12 0 -44 -56 -36 -64 3 -3 1 -6
-6 -6 -7 0 -9 -4 -6 -10 3 -5 2 -10 -3 -10 -6 0 -15 -13 -21 -30 -5 -16 -8
-30 -5 -30 3 0 -2 -7 -11 -16 -9 -9 -14 -23 -11 -30 3 -8 2 -14 -3 -14 -8 0
-24 -41 -25 -65 -1 -5 -4 -12 -7 -15 -10 -9 -48 -161 -70 -285 -17 -96 -23
-172 -26 -385 -3 -146 -1 -290 4 -320 l9 -55 -85 0 c-59 0 -86 -4 -89 -13 -2
-6 -8 -10 -13 -6 -5 3 -9 0 -9 -6 0 -6 -4 -9 -9 -6 -12 8 -73 -62 -66 -75 4
-5 1 -9 -4 -9 -8 0 -11 -293 -11 -965 0 -846 2 -970 15 -995 l16 -30 1549 0
c1522 0 1550 0 1569 19 11 11 23 35 26 53 10 59 1 1918 -10 1926 -5 4 -11 14
-13 22 -9 49 -108 95 -189 88 -32 -2 -42 0 -38 10 2 7 7 97 11 200 10 287 -18
560 -81 778 -15 49 -30 91 -36 92 -5 2 -7 7 -4 12 10 16 -88 230 -106 230 -5
0 -7 5 -4 10 3 6 1 10 -5 10 -6 0 -8 5 -5 10 3 6 -1 13 -9 16 -9 3 -14 10 -11
14 3 5 -3 13 -12 19 -10 6 -14 11 -9 11 23 1 -210 250 -234 250 -5 0 -10 5
-10 10 0 6 -11 15 -25 20 -14 5 -25 15 -25 21 0 7 -3 10 -6 6 -3 -3 -14 3 -25
14 -11 11 -24 17 -29 14 -6 -4 -10 -1 -10 4 0 12 -84 57 -115 63 -11 1 -26 9
-34 16 -7 7 -20 11 -27 8 -8 -3 -14 -2 -14 3 0 10 -71 32 -82 25 -4 -3 -8 -1
-8 4 0 5 -35 16 -77 26 -165 34 -337 43 -505 25z m-758 -372 c0 -2 -10 -12
-22 -23 l-23 -19 19 23 c18 21 26 27 26 19z m1159 -33 c172 -31 312 -105 428
-228 143 -149 225 -344 269 -631 18 -120 24 -478 10 -597 l-8 -68 -928 0 -928
0 -7 128 c-11 186 0 457 24 592 78 448 285 705 642 796 133 34 331 37 498 8z
m-154 -2436 c11 -2 28 -12 38 -23 10 -11 16 -14 12 -7 -10 19 0 14 21 -10 12
-13 13 -18 4 -13 -10 6 -9 2 3 -12 49 -56 41 -146 -18 -212 l-34 -37 -4 -164
c-4 -179 -6 -194 -27 -213 -12 -10 -12 -9 -5 3 9 14 9 14 -5 0 -19 -19 -81
-19 -100 0 -14 14 -14 14 -5 0 7 -12 7 -13 -5 -3 -21 19 -23 34 -29 216 -3 92
-9 167 -13 167 -8 0 -52 41 -54 50 0 3 -6 18 -13 34 -13 32 -11 136 2 136 5 0
7 3 5 8 -2 4 11 21 29 39 18 17 33 30 33 28 0 -1 17 4 38 11 20 8 53 12 72 9
19 -2 44 -6 55 -7z"/>
</g>
</svg>
