<?xml version="1.0" standalone="no"?>
<!DOCTYPE svg PUBLIC "-//W3C//DTD SVG 20010904//EN"
 "http://www.w3.org/TR/2001/REC-SVG-20010904/DTD/svg10.dtd">
<svg version="1.0" xmlns="http://www.w3.org/2000/svg"
 width="235.000000pt" height="235.000000pt" viewBox="0 0 235.000000 235.000000"
 preserveAspectRatio="xMidYMid meet">

<g transform="translate(0.000000,235.000000) scale(0.100000,-0.100000)"
fill="#000000" stroke="none">
<path d="M1044 2321 c-49 -35 -103 -99 -135 -161 -19 -36 -24 -61 -24 -125 0
-76 3 -86 49 -180 62 -126 67 -168 32 -254 -29 -71 -33 -119 -12 -127 37 -14
132 73 169 155 15 32 22 73 25 136 l4 90 -47 95 c-64 128 -64 165 -5 278 34
65 42 87 33 100 -16 27 -46 25 -89 -7z m46 -26 c0 -3 -16 -35 -36 -72 -33 -62
-36 -74 -32 -133 3 -52 12 -82 48 -154 41 -81 44 -96 44 -160 -1 -55 -7 -85
-28 -132 -27 -60 -89 -134 -102 -121 -3 3 6 37 21 76 37 94 32 135 -35 267
-64 127 -70 188 -27 276 33 67 147 186 147 153z"/>
<path d="M1395 2132 c-17 -10 -45 -35 -62 -56 -87 -99 -96 -186 -33 -317 45
-94 48 -118 20 -189 -36 -91 -18 -122 45 -79 67 45 105 127 105 224 0 37 -9
70 -35 124 -44 92 -45 128 -3 208 26 49 31 66 22 80 -15 24 -25 25 -59 5z
m-12 -98 c-32 -70 -28 -119 17 -205 25 -49 32 -74 32 -119 0 -66 -26 -133 -66
-169 -31 -30 -32 -27 -5 34 28 62 22 100 -30 205 -46 93 -50 133 -22 195 16
37 81 115 94 115 3 0 -6 -25 -20 -56z"/>
<path d="M1010 1364 c-380 -25 -604 -73 -682 -146 l-31 -29 6 -92 c8 -124 38
-234 91 -342 72 -145 163 -241 307 -321 l69 -39 0 -66 c0 -76 -2 -75 125 -106
100 -25 460 -25 560 0 127 31 125 30 125 106 l0 66 69 39 c144 80 235 176 307
321 53 108 83 218 91 342 l6 92 -31 29 c-60 56 -254 109 -487 131 -113 11
-442 21 -525 15z m410 -44 c438 -31 687 -123 551 -203 -26 -15 -33 -15 -62 -3
-48 20 -206 52 -329 68 -160 20 -691 17 -845 -5 -109 -15 -274 -52 -317 -71
-22 -10 -84 45 -75 67 40 104 599 180 1077 147z m206 -184 c132 -20 244 -46
244 -55 0 -10 -173 -47 -300 -63 -127 -17 -663 -17 -790 0 -127 16 -300 53
-300 63 0 15 210 53 395 73 101 10 654 -3 751 -18z m-1221 -75 c63 -28 176
-55 330 -78 172 -25 708 -25 880 0 159 24 275 52 338 82 28 13 53 22 55 20 2
-2 -4 -42 -13 -90 -60 -319 -252 -523 -570 -606 -76 -20 -115 -23 -250 -23
-135 0 -174 3 -250 23 -329 85 -530 311 -579 655 -4 26 -4 46 1 44 4 -2 31
-14 58 -27z m525 -714 c122 -30 368 -30 490 0 47 12 93 25 103 28 15 6 17 1
17 -42 0 -49 -1 -50 -37 -61 -150 -44 -506 -44 -655 0 -37 11 -38 12 -38 61 0
43 2 48 18 42 9 -3 55 -16 102 -28z"/>
</g>
</svg>
